<svg xmlns="http://www.w3.org/2000/svg" xmlns:xlink="http://www.w3.org/1999/xlink" viewBox="0 0 902.2 359.42"><defs><style>.cls-1{fill:url(#Безымянный_градиент_7);}.cls-2{fill:none;stroke:#ffd40a;}.cls-3{fill:url(#Безымянный_градиент_7-2);}.cls-4{fill:url(#Безымянный_градиент_7-3);}.cls-5{fill:url(#Безымянный_градиент_7-4);}.cls-6{fill:url(#Безымянный_градиент_7-5);}.cls-7{fill:url(#Безымянный_градиент_7-6);}.cls-8{font-size:157.8px;}.cls-10,.cls-8,.cls-9{fill:#d20000;stroke:#000;stroke-miterlimit:10;stroke-width:0.25px;font-family:Sylfaen;}.cls-9{font-size:202.48px;}.cls-10{font-size:134px;}</style><linearGradient id="Безымянный_градиент_7" x1="125.73" y1="67.06" x2="127.6" y2="319.01" gradientUnits="userSpaceOnUse"><stop offset="0" stop-color="#fbad02"/><stop offset="1" stop-color="#e80f06"/></linearGradient><linearGradient id="Безымянный_градиент_7-2" x1="210.66" y1="83.48" x2="211.65" y2="215.95" xlink:href="#Безымянный_градиент_7"/><linearGradient id="Безымянный_градиент_7-3" x1="143.32" y1="27.08" x2="144.05" y2="125.96" xlink:href="#Безымянный_градиент_7"/><linearGradient id="Безымянный_градиент_7-4" x1="160.04" y1="232.02" x2="178.26" y2="330.6" xlink:href="#Безымянный_градиент_7"/><linearGradient id="Безымянный_градиент_7-5" x1="54.56" y1="96.99" x2="67.97" y2="169.58" xlink:href="#Безымянный_градиент_7"/><linearGradient id="Безымянный_градиент_7-6" x1="59.18" y1="219.41" x2="79.51" y2="329.45" xlink:href="#Безымянный_градиент_7"/></defs><g id="Слой_2" data-name="Слой 2"><g id="Слой_1-2" data-name="Слой 1"><path class="cls-1" d="M252.61,217a125.07,125.07,0,0,0-5.08-27.49,42.9,42.9,0,0,1-16.7,43.36,77.12,77.12,0,0,0,5.54-36.9c-1.39-13.39-6.2-23-12.18-34.69-11-21.57-17.8-23.42-26.2-43.54-4-9.47-6.81-16.35-7-25.47-.47-22.12,15.2-38.45,21.4-44.28-5.93,1.68-27.68,8.6-42.06,30.63-18.44,28.24-9.81,58.4-8.49,62.73A65.84,65.84,0,0,1,143,111.81a67,67,0,0,1-1.48-32.1c1.52-7.51,2.74-6.63,9.23-23.62,9.31-24.4,9.86-34.23,10-37.27A72.22,72.22,0,0,0,158.88,0a112,112,0,0,1-15.13,32.1C126.2,57.57,106.51,62.4,97.62,86a62,62,0,0,0-3.69,25.46,44.17,44.17,0,0,1-17.44-39A61.36,61.36,0,0,0,59.24,98.16c-2.24,6.71-2.51,12.31-3,23.25-1,24.7,2.85,32.17-1.48,46.12a56.8,56.8,0,0,1-8.12,16.24,80.91,80.91,0,0,0,0-34,80.67,80.67,0,0,0-10-25.09,73.14,73.14,0,0,1-2.12,24.35c-1.11,4.22-2.59,7.86-5.54,15.13-6.86,16.92-8.15,16.5-10.33,24a66.06,66.06,0,0,0-2.21,26.94,60.7,60.7,0,0,0,6.27,19.56A37.72,37.72,0,0,1,3.43,200.28a122.24,122.24,0,0,0-1,43.64C4,253.64,7.69,275.4,24.55,296.69a106.94,106.94,0,0,0,55.26,36.44,104.84,104.84,0,0,0,88.85-16.6,119.08,119.08,0,0,1-84,27.39A127.35,127.35,0,0,0,133,351.31a126,126,0,0,0,66.8-22.51c3.27-2.31,37.69-27.28,49.08-71.59A130.86,130.86,0,0,0,252.61,217ZM133,316.26a84.63,84.63,0,1,1,84.63-84.63A84.63,84.63,0,0,1,133,316.26Z"/><circle class="cls-2" cx="133.04" cy="231.63" r="84.63" transform="matrix(1, -0.07, 0.07, 1, -16.09, 10.01)"/><path class="cls-3" d="M235.82,185.06a250.25,250.25,0,0,0-21-47.05c-11.44-18.95-16.27-21.46-19.37-34.32a59.47,59.47,0,0,1-1.11-23.24C197.19,63.3,207.67,52.39,212,48.34A63,63,0,0,0,189.87,72.7c-6.35,12.55-6.58,23.83-6.64,29.89-.15,16.48,5,28.5,10.52,41,11.59,26.21,20.89,28.94,29.34,49.82a109,109,0,0,1,7.74,39.48,57.75,57.75,0,0,0,8.31-29C239.16,196.8,237.8,191.22,235.82,185.06Z"/><path class="cls-4" d="M158.93.74a121.81,121.81,0,0,1-9.41,34.87c-9.62,21.85-19.64,26.61-22.7,44.84-.83,4.92-3.15,20.13,5.54,35.42,8.55,15.06,22.55,21,27.12,22.7-15.36-19.65-17.1-36.3-17.16-44.29C142.25,84,144.88,75.05,147.85,65c5.54-18.8,10.91-24,12.74-38.2A70.23,70.23,0,0,0,158.93.74Z"/><path class="cls-5" d="M246.89,188.94a120.22,120.22,0,0,1,.55,42.62c-6.13,36.35-27.53,58.91-34.32,65.87C183.6,327.7,148,334,136.18,335.62a92.7,92.7,0,0,1-51.48,8.3c12.61,4.22,39.16,11.12,70.85,3.88,7-1.6,65.76-16.06,89.12-73.07C260.75,235.5,250.48,199.79,246.89,188.94Z"/><path class="cls-6" d="M68.65,164c4.32-8.26,4.15-16,3.88-28.78C72.11,115.92,68,110.92,69.2,96.5a72.45,72.45,0,0,1,6.09-23.25C63.93,84.9,59.53,95.66,57.58,103.14c-6.86,26.36,7.66,47-5,70.3a48.29,48.29,0,0,1-7.2,10C51.16,181.18,62.51,175.78,68.65,164Z"/><path class="cls-7" d="M79.72,319c-12.55-5.92-35.53-16.76-48.16-42.63C22.7,258.22,23,241,23.82,232.11A30,30,0,0,1,3.89,199.45a108.45,108.45,0,0,0,11.62,84.69C33,312.94,58.76,324.42,68.1,328.43c9.14,3.92,24.68,10.36,45.39,8.85a87.59,87.59,0,0,0,28.78-7.19A123.71,123.71,0,0,1,79.72,319Z"/><text class="cls-8" transform="translate(74.15 284.21)">З</text><text class="cls-9" transform="translate(76.79 299.58)">Б</text><text class="cls-9" transform="translate(76.26 299.15)">Г</text><text class="cls-10" transform="translate(293.58 270.96)">ОГНЕБИЗ</text></g></g></svg>